# xmcd CD Database Entry
#
# Track frame offsets:
# 150
# 20687
# 37142
# 62182
# 86385
# 103645
# 117572
# 124170
# 143335
# 158295
# 171102
# 191770
# 214487
#
# Disc length: 2986 seconds
#
# Revision: 2
# Processed by: cddbd v1.4PL0 Copyright (c) Steve Scherf et al.
# Submitted via: tcd 2.0b
#
DISCID=b50ba80d
DTITLE=Moneyshot - Just Past Now
DYEAR=1900
DGENRE=
TTITLE0=Breathless
TTITLE1=Like This
TTITLE2=Lapse
TTITLE3=Ring Around the Roses
TTITLE4=to my best friend
TTITLE5=Just Past Now
TTITLE6=Welcome to A Small Town
TTITLE7=3 True Stories
TTITLE8=Dancin with the dead
TTITLE9=Silver Sky
TTITLE10=Retribution
TTITLE11=Love no. 1
TTITLE12=Instead
EXTD=
EXTT0=
EXTT1=
EXTT2=
EXTT3=
EXTT4=
EXTT5=
EXTT6=
EXTT7=
EXTT8=
EXTT9=
EXTT10=
EXTT11=
EXTT12=
PLAYORDER=
